<svg width="154" height="35" viewBox="0 0 154 35" fill="none" xmlns="http://www.w3.org/2000/svg">
<g clip-path="url(#clip0_18_33)">
<path d="M48.0542 14.482C47.9065 14.3343 47.726 14.2523 47.4962 14.2523H38.717C38.4872 14.2523 38.2903 14.3343 38.1426 14.482C37.9949 14.6297 37.9293 14.8102 37.9293 15.0399C37.9293 15.2697 37.9949 15.4666 38.1426 15.6143C38.2903 15.762 38.4872 15.8276 38.717 15.8276H41.7692C41.9005 15.8276 42.0153 15.8768 42.1138 15.9753C42.2123 16.0738 42.2615 16.1886 42.2615 16.3199V26.2151C42.2615 26.4612 42.3435 26.6581 42.5076 26.8222C42.6717 26.9863 42.8687 27.0684 43.1148 27.0684C43.3445 27.0684 43.5579 26.9863 43.722 26.8222C43.8861 26.6581 43.9681 26.4612 43.9681 26.2151V16.3199C43.9681 16.1886 44.0173 16.0738 44.1158 15.9753C44.2143 15.8768 44.3291 15.8276 44.4604 15.8276H47.4962C47.726 15.8276 47.9065 15.762 48.0542 15.6143C48.2019 15.4666 48.2839 15.2697 48.2839 15.0399C48.2839 14.8102 48.2019 14.6297 48.0542 14.482V14.482Z" fill="white"/>
<path d="M59.5263 22.5885C59.5263 21.7516 59.3129 20.9639 58.9191 20.2747C58.5253 19.5855 57.9837 19.0275 57.2945 18.6337C56.6053 18.2399 55.8505 18.0265 55.0136 18.0265C54.1602 18.0265 53.389 18.2399 52.6998 18.6337C52.0106 19.0275 51.469 19.5855 51.0752 20.2747C50.6814 20.9639 50.4844 21.7352 50.4844 22.5885C50.4844 23.4418 50.6649 24.2295 51.026 24.9187C51.387 25.6079 51.8957 26.1494 52.5357 26.5433C53.1921 26.9535 53.8977 27.1504 54.6854 27.1504H54.8166H58.7386C58.9519 27.1504 59.1324 27.0684 59.2965 26.9207C59.4442 26.773 59.5263 26.5925 59.5263 26.3628V26.2479V22.5885ZM52.47 24.1638C52.2075 23.7044 52.0926 23.1792 52.0926 22.5885C52.0926 22.0141 52.2075 21.489 52.47 21.0131C52.7326 20.5537 53.0772 20.1762 53.5203 19.9137C53.9633 19.6511 54.4556 19.5034 55.0136 19.5034C55.5551 19.5034 56.0474 19.6511 56.4904 19.9137C56.9335 20.1762 57.2781 20.5537 57.5407 21.0131C57.7868 21.489 57.9181 22.0141 57.9181 22.5885C57.9181 23.1792 57.7868 23.7044 57.5407 24.1638C57.2781 24.6233 56.9335 25.0007 56.4904 25.2633C56.0474 25.5259 55.5551 25.6571 55.0136 25.6571C54.4556 25.6571 53.9633 25.5259 53.5203 25.2633C53.0772 25.0007 52.7326 24.6233 52.47 24.1638V24.1638Z" fill="white"/>
<path d="M70.5063 18.3711C69.9484 18.1414 69.3084 18.0265 68.6028 18.0265C68.012 18.0265 67.4705 18.125 66.9618 18.3055C66.4367 18.5024 66.0264 18.7814 65.7146 19.1424C65.3864 19.5198 65.2388 19.9793 65.2388 20.5044C65.2388 21.8336 66.289 22.7033 68.3895 23.0972C69.1935 23.2613 69.7679 23.4418 70.1125 23.6715C70.4407 23.9013 70.6212 24.1802 70.6212 24.5084C70.6212 24.8695 70.4407 25.1484 70.0961 25.3453C69.7515 25.5587 69.2756 25.6571 68.652 25.6571C68.1761 25.6571 67.7331 25.5751 67.3228 25.411C66.8961 25.2469 66.5844 25.0335 66.3874 24.8038C66.1905 24.6069 65.9772 24.5084 65.7639 24.5084C65.5834 24.5084 65.3864 24.5905 65.1895 24.7382C64.9598 24.9023 64.8613 25.1156 64.8613 25.3782C64.8613 25.5751 64.927 25.7556 65.0747 25.8869C65.4357 26.2643 65.9608 26.5597 66.6172 26.7894C67.2736 27.0191 67.9628 27.134 68.7176 27.134C69.4561 27.134 70.0961 27.0191 70.6212 26.7894C71.1463 26.5597 71.5566 26.2315 71.8355 25.8212C72.0981 25.411 72.2458 24.9515 72.2458 24.4428C72.2458 23.77 71.9832 23.2121 71.4909 22.7854C70.9986 22.3587 70.1453 22.0305 68.9638 21.7844C68.373 21.6695 67.93 21.5547 67.6346 21.4234C67.3228 21.2921 67.1095 21.1608 67.011 21.0131C66.8962 20.8654 66.8469 20.6849 66.8469 20.4552C66.8469 20.1598 66.9946 19.9137 67.3228 19.7496C67.651 19.5855 68.0613 19.487 68.57 19.487C68.9966 19.487 69.374 19.5527 69.6858 19.6511C69.9812 19.7496 70.2766 19.9301 70.5556 20.1762C70.7853 20.3896 71.0314 20.488 71.3268 20.488C71.5073 20.488 71.655 20.4552 71.7863 20.3567C71.9668 20.209 72.0653 20.0449 72.0653 19.848C72.0653 19.6839 71.9832 19.5034 71.8519 19.3229C71.5237 18.9291 71.0643 18.6009 70.5063 18.3711V18.3711Z" fill="white"/>
<path d="M84.7386 26.3792C84.7386 26.1822 84.673 26.0181 84.5581 25.8869L81.3746 21.9813L84.394 19.2901C84.5581 19.1588 84.6566 18.9619 84.6566 18.7322C84.6566 18.5352 84.5745 18.3711 84.4433 18.2235C84.2956 18.0594 84.1151 17.9609 83.8853 17.9609C83.6884 17.9609 83.5079 18.0429 83.3766 18.1742L79.389 21.7352V15.0563C79.389 14.8266 79.307 14.6297 79.1593 14.482C79.0116 14.3343 78.8147 14.2523 78.5849 14.2523C78.3388 14.2523 78.1419 14.3343 77.9942 14.482C77.8465 14.6297 77.7809 14.8266 77.7809 15.0563V26.2643C77.7809 26.5104 77.8465 26.7074 77.9942 26.855C78.1419 27.0027 78.3388 27.0684 78.5849 27.0684C78.8147 27.0684 79.0116 27.0027 79.1593 26.855C79.307 26.7074 79.389 26.5104 79.389 26.2643V23.7536L80.2095 23.0315L83.3274 26.8879C83.4751 27.0848 83.672 27.1832 83.9181 27.1832C84.0986 27.1832 84.2792 27.1176 84.4433 26.9863C84.6402 26.8222 84.7386 26.6253 84.7386 26.3792V26.3792Z" fill="white"/>
<path d="M95.5805 18.3711C95.0226 18.1414 94.3826 18.0265 93.677 18.0265C93.0862 18.0265 92.5447 18.125 92.036 18.3055C91.5109 18.5024 91.1006 18.7814 90.7889 19.1424C90.4607 19.5198 90.313 19.9793 90.313 20.5044C90.313 21.8336 91.3632 22.7033 93.4637 23.0972C94.2678 23.2613 94.8421 23.4418 95.1867 23.6715C95.5149 23.9013 95.6954 24.1802 95.6954 24.5084C95.6954 24.8695 95.5149 25.1484 95.1703 25.3453C94.8257 25.5587 94.3498 25.6571 93.7262 25.6571C93.2503 25.6571 92.8073 25.5751 92.397 25.411C91.9704 25.2469 91.6586 25.0335 91.4617 24.8038C91.2647 24.6069 91.0514 24.5084 90.8381 24.5084C90.6576 24.5084 90.4607 24.5905 90.2637 24.7382C90.034 24.9023 89.9355 25.1156 89.9355 25.3782C89.9355 25.5751 90.0012 25.7556 90.1489 25.8869C90.5099 26.2643 91.035 26.5597 91.6914 26.7894C92.3478 27.0191 93.037 27.134 93.7919 27.134C94.5303 27.134 95.1703 27.0191 95.6954 26.7894C96.2205 26.5597 96.6308 26.2315 96.9097 25.8212C97.1723 25.411 97.32 24.9515 97.32 24.4428C97.32 23.77 97.0574 23.2121 96.5651 22.7854C96.0728 22.3587 95.2195 22.0305 94.038 21.7844C93.4473 21.6695 93.0042 21.5547 92.7088 21.4234C92.397 21.2921 92.1837 21.1608 92.0852 21.0131C91.9704 20.8654 91.9211 20.6849 91.9211 20.4552C91.9211 20.1598 92.0688 19.9137 92.397 19.7496C92.7252 19.5855 93.1355 19.487 93.6442 19.487C94.0708 19.487 94.4483 19.5527 94.76 19.6511C95.0554 19.7496 95.3508 19.9301 95.6298 20.1762C95.8595 20.3896 96.1056 20.488 96.401 20.488C96.5815 20.488 96.7292 20.4552 96.8605 20.3567C97.041 20.209 97.1395 20.0449 97.1395 19.848C97.1395 19.6839 97.0574 19.5034 96.9261 19.3229C96.5979 18.9291 96.1385 18.6009 95.5805 18.3711V18.3711Z" fill="white"/>
<path d="M110.141 15.0728C109.173 14.5312 108.073 14.2523 106.843 14.2523H103.872C103.626 14.2523 103.413 14.3343 103.265 14.4984C103.101 14.6625 103.019 14.8594 103.019 15.1056V26.2151C103.019 26.4612 103.101 26.6581 103.265 26.8222C103.429 26.9863 103.626 27.0684 103.872 27.0684H106.843C108.073 27.0684 109.173 26.8058 110.141 26.2479C111.093 25.7063 111.848 24.9515 112.389 23.9669C112.914 22.9987 113.193 21.8993 113.193 20.6521C113.193 19.4214 112.914 18.3219 112.389 17.3537C111.848 16.3855 111.093 15.6307 110.141 15.0728V15.0728ZM109.271 24.9351C108.549 25.3617 107.745 25.5587 106.843 25.5587H105.218C105.07 25.5587 104.955 25.5258 104.857 25.4274C104.759 25.3289 104.726 25.214 104.726 25.0664V16.2707C104.726 16.123 104.759 16.0081 104.857 15.9097C104.955 15.8112 105.07 15.762 105.218 15.762H106.843C107.745 15.762 108.549 15.9753 109.271 16.3855C109.993 16.8122 110.551 17.3865 110.945 18.125C111.339 18.8798 111.552 19.7167 111.552 20.6521C111.552 21.6039 111.339 22.4408 110.945 23.1956C110.551 23.9505 109.993 24.5248 109.271 24.9351V24.9351Z" fill="white"/>
<path d="M125.509 18.6173C124.82 18.2235 124.049 18.0265 123.196 18.0265C122.309 18.0265 121.538 18.2235 120.849 18.6173C120.16 19.0111 119.618 19.5362 119.241 20.2255C118.847 20.9147 118.667 21.7023 118.667 22.5885C118.667 23.4746 118.847 24.2459 119.241 24.9351C119.618 25.6243 120.16 26.1658 120.849 26.5597C121.538 26.9535 122.309 27.134 123.196 27.134C124.065 27.134 124.837 26.9535 125.526 26.5597C126.215 26.1658 126.74 25.6243 127.134 24.9351C127.511 24.2459 127.708 23.4746 127.708 22.5885C127.708 21.7023 127.511 20.9147 127.118 20.2255C126.724 19.5362 126.199 19.0111 125.509 18.6173ZM121.686 19.8973C122.129 19.6347 122.638 19.5034 123.196 19.5034C123.754 19.5034 124.246 19.6347 124.689 19.8973C125.132 20.1598 125.477 20.5372 125.723 20.9967C125.969 21.4726 126.1 21.9977 126.1 22.5885C126.1 23.1792 125.969 23.7208 125.723 24.1802C125.477 24.6397 125.132 25.0007 124.689 25.2633C124.246 25.5258 123.754 25.6571 123.196 25.6571C122.638 25.6571 122.129 25.5258 121.686 25.2633C121.243 25.0007 120.898 24.6397 120.652 24.1802C120.39 23.7208 120.275 23.1792 120.275 22.5885C120.275 21.9977 120.39 21.4726 120.652 20.9967C120.898 20.5372 121.243 20.1598 121.686 19.8973Z" fill="white"/>
<path d="M138.689 18.3711C138.131 18.1414 137.491 18.0265 136.785 18.0265C136.194 18.0265 135.653 18.125 135.144 18.3055C134.619 18.5024 134.209 18.7814 133.897 19.1424C133.569 19.5198 133.421 19.9793 133.421 20.5044C133.421 21.8336 134.471 22.7033 136.572 23.0972C137.376 23.2613 137.95 23.4418 138.295 23.6715C138.623 23.9013 138.803 24.1802 138.803 24.5084C138.803 24.8695 138.623 25.1484 138.278 25.3453C137.934 25.5587 137.458 25.6571 136.834 25.6571C136.358 25.6571 135.915 25.5751 135.505 25.411C135.078 25.2469 134.767 25.0335 134.57 24.8038C134.373 24.6069 134.159 24.5084 133.946 24.5084C133.766 24.5084 133.569 24.5905 133.372 24.7382C133.142 24.9023 133.044 25.1156 133.044 25.3782C133.044 25.5751 133.109 25.7556 133.257 25.8869C133.618 26.2643 134.143 26.5597 134.799 26.7894C135.456 27.0191 136.145 27.134 136.9 27.134C137.638 27.134 138.278 27.0191 138.803 26.7894C139.328 26.5597 139.739 26.2315 140.018 25.8212C140.28 25.411 140.428 24.9515 140.428 24.4428C140.428 23.77 140.165 23.2121 139.673 22.7854C139.181 22.3587 138.327 22.0305 137.146 21.7844C136.555 21.6695 136.112 21.5547 135.817 21.4234C135.505 21.2921 135.292 21.1608 135.193 21.0131C135.078 20.8654 135.029 20.6849 135.029 20.4552C135.029 20.1598 135.177 19.9137 135.505 19.7496C135.833 19.5855 136.243 19.487 136.752 19.487C137.179 19.487 137.556 19.5527 137.868 19.6511C138.163 19.7496 138.459 19.9301 138.738 20.1762C138.967 20.3896 139.214 20.488 139.509 20.488C139.69 20.488 139.837 20.4552 139.968 20.3567C140.149 20.209 140.247 20.0449 140.247 19.848C140.247 19.6839 140.165 19.5034 140.034 19.3229C139.706 18.9291 139.246 18.6009 138.689 18.3711V18.3711Z" fill="white"/>
<path d="M153.807 22.9659C153.938 22.8346 154.02 22.6541 154.02 22.4408C154.02 21.5875 153.856 20.8162 153.528 20.1434C153.2 19.487 152.724 18.9619 152.117 18.5845C151.493 18.2235 150.771 18.0265 149.934 18.0265C149.081 18.0265 148.31 18.2235 147.637 18.6173C146.964 19.0111 146.439 19.5527 146.061 20.2419C145.684 20.9311 145.503 21.7188 145.503 22.5885C145.503 23.4746 145.7 24.2459 146.094 24.9351C146.488 25.6243 147.046 26.1658 147.768 26.5597C148.474 26.9535 149.278 27.134 150.18 27.134C150.673 27.134 151.198 27.052 151.756 26.855C152.314 26.6745 152.773 26.4284 153.15 26.133C153.315 26.0017 153.413 25.8376 153.413 25.6407C153.413 25.4438 153.315 25.2469 153.118 25.0828C152.986 24.9843 152.822 24.9187 152.625 24.9187C152.412 24.9187 152.231 24.9843 152.084 25.0992C151.854 25.2797 151.559 25.4274 151.198 25.5423C150.837 25.6735 150.508 25.7228 150.18 25.7228C149.343 25.7228 148.638 25.493 148.063 25.0171C147.489 24.5577 147.144 23.9341 147.03 23.1628H153.265C153.479 23.1628 153.659 23.0972 153.807 22.9659V22.9659ZM147.981 20.0942C148.474 19.6675 149.13 19.4378 149.934 19.4378C150.656 19.4378 151.23 19.6675 151.69 20.0942C152.133 20.5372 152.412 21.128 152.51 21.85H147.046C147.177 21.128 147.489 20.5372 147.981 20.0942V20.0942Z" fill="white"/>
</g>
<path d="M26.2307 24.2138L17.978 16.1166C17.7263 15.8845 17.5517 15.5683 17.4771 15.2607L16.2452 10.184L16.8607 10.0346C17.2913 9.93012 17.5784 9.50198 17.4665 9.04063C17.362 8.60995 16.9031 8.33032 16.4725 8.43482L7.7652 10.5474C7.33453 10.6519 7.04745 11.08 7.15939 11.5414C7.2639 11.972 7.72275 12.2517 8.1534 12.1472L8.76883 11.9978L9.99325 17.0439C10.0754 17.3824 10.0577 17.7124 9.94034 18.0341L6.35466 29.037C5.96237 30.2399 6.23778 31.5089 7.08353 32.4439C7.96026 33.3714 9.19388 33.7563 10.4245 33.4577L24.6086 30.0159C25.8392 29.7173 26.7902 28.8023 27.1134 27.5837C27.4752 26.3881 27.1385 25.1343 26.231 24.214L26.2307 24.2138ZM11.5333 18.5603C11.745 17.955 11.7494 17.3023 11.5926 16.6561L10.3683 11.6103L14.6758 10.5651L15.9003 15.6112C16.0496 16.2266 16.3834 16.797 16.8256 17.2764L19.7773 20.1764C18.6155 20.4908 17.3708 20.5975 16.0589 20.427C14.0029 20.1439 12.1727 20.523 10.6157 21.3568L11.5333 18.5603Z" fill="#FCFCFC"/>
<path d="M10.6504 5.25356C10.807 5.8992 10.4105 6.5498 9.76489 6.70646C9.11926 6.86312 8.46865 6.4666 8.31199 5.82097C8.15533 5.17534 8.55185 4.52474 9.19748 4.36808C9.84311 4.21141 10.4937 4.60794 10.6504 5.25356Z" fill="#FCFCFC"/>
<path d="M12.8318 2.96515C12.9596 3.49202 12.6361 4.02281 12.1095 4.15059C11.5826 4.27844 11.0518 3.95496 10.924 3.42807C10.7962 2.90146 11.1197 2.37068 11.6466 2.24283C12.1732 2.11505 12.704 2.43852 12.8318 2.96515Z" fill="#FCFCFC"/>
<path d="M14.2826 6.39271C14.464 7.14038 14.005 7.89347 13.2574 8.07489C12.5097 8.25631 11.7566 7.79732 11.5752 7.04966C11.3938 6.30199 11.8527 5.54864 12.6003 5.36722C13.348 5.1858 14.1012 5.64504 14.2826 6.39271" fill="#FCFCFC"/>
<g clip-path="url(#clip1_18_33)">
<path d="M19.046 22.4015C18.8535 22.4441 18.6853 22.56 18.5767 22.7247C18.4407 22.925 17.5468 24.2818 16.6236 25.6816C15.8741 26.8181 15.3457 27.618 15.0481 28.0673L12.6599 26.8785L12.66 26.8785C12.4786 26.7729 12.2615 26.7473 12.0604 26.8076C11.8593 26.8679 11.6921 27.0087 11.5987 27.1967C11.5053 27.3847 11.4939 27.603 11.5673 27.7997C11.6406 27.9964 11.7922 28.1538 11.9859 28.2348L14.9747 29.7231C15.139 29.8047 15.3274 29.8241 15.5048 29.7775C15.6824 29.731 15.8371 29.6217 15.9402 29.4699C16.0761 29.2696 16.9708 27.9167 17.894 26.5169C18.8172 25.1171 19.7689 23.6702 19.8338 23.5747L19.8338 23.5746C19.9503 23.4063 19.994 23.1982 19.9548 22.9975C19.9158 22.7966 19.7972 22.62 19.6261 22.5078C19.455 22.3956 19.2458 22.3573 19.046 22.4015L19.046 22.4015Z" fill="#8847FD"/>
</g>
<defs>
<clipPath id="clip0_18_33">
<rect width="116" height="17.3065" fill="white" transform="translate(37.9747 13)"/>
</clipPath>
<clipPath id="clip1_18_33">
<rect width="9.95771" height="8.29809" fill="white" transform="translate(10.4649 22.9155) rotate(-10.8318)"/>
</clipPath>
</defs>
</svg>
