<?xml version="1.0" encoding="UTF-8"?>
<svg width="752pt" height="752pt" version="1.1" viewBox="0 0 752 752" xmlns="http://www.w3.org/2000/svg">
 <g>
  <path d="m528.97 521.86-91.402-146.81c-2.8398-4.2617-4.2617-9.4727-4.2617-14.207v-78.141h9.4727c6.6289 0 12.312-5.2109 12.312-12.312 0-6.6289-5.6836-12.312-12.312-12.312l-134.02-0.003906c-6.6289 0-12.312 5.2109-12.312 12.312 0 6.6289 5.6836 12.312 12.312 12.312h9.4727v77.668c0 5.2109-1.4219 9.9453-4.2617 14.207l-90.93 147.29c-9.9453 16.102-10.418 35.52-1.4219 52.094 9.4727 16.574 26.047 26.52 44.988 26.52h218.32c18.941 0 35.992-9.9453 44.988-26.52 9.4766-16.102 9.0039-35.516-0.94141-52.094zm-193.7-134.02c5.2109-8.0508 7.5781-17.523 7.5781-27.469v-77.664h66.301v77.668c0 9.4727 2.8398 18.941 7.5781 27.469l32.676 52.566c-17.996 0.47266-36.465-2.3672-54.934-9.4727-28.887-11.367-56.828-12.312-82.402-5.6836z"/>
  <path d="m369.37 191.3c0 9.9375-8.0586 17.996-17.996 17.996s-17.996-8.0586-17.996-17.996 8.0586-17.996 17.996-17.996 17.996 8.0586 17.996 17.996"/>
  <path d="m409.15 165.73c0 8.1094-6.5742 14.684-14.68 14.684-8.1094 0-14.684-6.5742-14.684-14.684 0-8.1055 6.5742-14.68 14.684-14.68 8.1055 0 14.68 6.5742 14.68 14.68"/>
  <path d="m418.15 220.67c0 11.508-9.3281 20.836-20.836 20.836s-20.836-9.3281-20.836-20.836c0-11.508 9.3281-20.84 20.836-20.84s20.836 9.332 20.836 20.84"/>
 </g>
</svg>
