<?xml version="1.0" encoding="UTF-8"?>
<svg width="752pt" height="752pt" version="1.1" viewBox="0 0 752 752" xmlns="http://www.w3.org/2000/svg">
 <path d="m518.11 252.79c-7.3789 0.21484-14.383 3.293-19.535 8.5859-6.4102 6.4102-48.84 50.023-92.645 95.012-35.566 36.527-60.629 62.227-74.738 76.66l-79.473-60.531h0.003906c-5.9297-5.1602-13.734-7.6328-21.555-6.8281-7.8203 0.80078-14.961 4.8047-19.719 11.062-4.7578 6.2578-6.7148 14.207-5.3984 21.957 1.3125 7.75 5.7812 14.609 12.336 18.949l99.453 75.773c5.4688 4.1602 12.262 6.1992 19.117 5.7344 6.8594-0.46094 13.316-3.3945 18.176-8.25 6.4102-6.4102 48.84-49.875 92.645-94.863s88.992-91.508 92.051-94.566l0.003907-0.003907c5.4688-5.3672 8.5391-12.715 8.5117-20.375-0.023437-7.6641-3.1406-14.992-8.6445-20.324-5.5039-5.3281-12.93-8.2109-20.59-7.9922z"/>
</svg>
